<?xml version="1.0" encoding="utf-8"?>
<svg xmlns="http://www.w3.org/2000/svg" viewBox="0 0 547 241">
  <g style="fill:#207fba">
    <path d="m 112.76,51.3 h -43.31 l -21.18,115.96 h -24.65 l 21.18,-115.96 h -43.68 l 3.93,-21.37 h 111.75 z"/>
    <path d="m 193.38,106.51 -11.15,60.75 h -24.18 l 11.34,-61.5 -32.34,-75.84 h 25.40 l 22.12,53.71 41.15,-53.71 h 27.84 z"/>
    <path d="m 349.48,169.14 h -9.46 l -50.62,-88.78 -15.18,86.90 h -24.18 l 25.21,-137.34 h 11.25 l 49.59,85.12 14.90,-85.12 h 24.09 z"/>
    <path d="m 485.51,51.3 h -63.28 l -5.71,31.59 h 45.37 l -3.84,20.43 h -45.37 l -7.68,42.56 h 62.25 l -4.03,21.37 h -87.37 l 25.31,-137.34 h 88.40 z"/>
    <path d="m 42.21,240.21 -1.91,-12.41 h -21.83 l -7.16,12.41 h -11.29 l 37.08,-61.87 h 3.87 l 12.54,61.87 z m -6.58,-43.33 -12.54,22.79 h 16 z"/>
    <path d="m 106.83,188.67 h -28.12 l -2.54,14.04 h 20.16 l -1.70,9.08 h -20.16 l -3.41,18.91 h 27.66 l -1.79,9.5 h -38.83 l 11.24,-61.04 h 39.29 z"/>
    <path d="m 142.16,213.17 13.62,27.04 h -12.20 l -11.66,-25.24 q -2.83,-0.04 -6.95,-0.33 l -4.70,25.58 h -11.16 l 11.16,-61.04 q 12.16,-0.62 15.95,-0.62 9.87,0 15.58,3.83 5.75,3.79 5.75,10.99 0,7.33 -4.20,12.75 -4.16,5.37 -11.16,7.04 z m -12.45,-24.62 -3.12,17.08 q 2.45,0.25 4.37,0.25 15.74,0 15.74,-10 0,-4.20 -3.04,-5.95 -3,-1.79 -9.99,-1.79 -0.58,0 -3.95,0.41 z"/>
    <path d="m 164.29,217.5 q 0,-16.29 8.87,-27.83 8.91,-11.58 23.16,-11.58 10.95,0 16.87,5.83 5.91,5.79 5.91,16.79 0,18.04 -9.08,29.29 -9.08,11.24 -24.87,11.24 -9.66,0 -15.29,-6.5 -5.58,-6.54 -5.58,-17.24 z m 11.24,-1.12 q 0,7.04 2.79,11.20 2.79,4.16 8.16,4.16 9.91,0 15.66,-8.91 5.75,-8.91 5.75,-21.29 0,-14 -12.33,-14 -8.66,0 -14.37,9.16 -5.66,9.16 -5.66,19.66 z"/>
    <path d="m 259.25,191.21 q -4.83,-3.54 -9.83,-3.54 -10.04,0 -10.04,7.58 0,3.20 5.33,7.66 l 6.29,5.33 q 2.91,2.49 4.04,3.66 1.12,1.12 2.37,3.16 1.25,2.04 1.87,4.12 0.62,2.08 0.62,4.25 0,8.37 -6.29,13.08 -6.25,4.70 -16.24,4.70 -8.20,0 -15.49,-3.54 l 3.49,-10.70 q 5.58,4.20 12.95,4.20 4.45,0 7.37,-1.87 2.95,-1.91 2.95,-5.41 0,-3.45 -5.33,-7.62 l -6.54,-5.20 q -3,-2.41 -4.08,-3.5 -1.04,-1.08 -2.20,-3 -1.16,-1.95 -1.75,-4 -0.58,-2.04 -0.58,-4.20 0,-8.41 5.58,-13.33 5.58,-4.91 14.62,-4.91 3,0 7.66,0.70 4.66,0.66 6.54,1.54 z"/>
    <path d="m 280.12,217.8 -4.12,22.41 h -11.08 l 11.5,-60.95 q 8.70,-0.91 13.29,-0.91 24.20,0 24.20,18.20 0,10.24 -7.37,16.12 -7.33,5.83 -19.04,5.83 -3.75,0 -7.37,-0.70 z m 5.33,-29.37 -3.62,20.12 q 2.12,0.58 5.41,0.58 7.08,0 11.24,-3.04 4.16,-3.04 4.16,-8.75 0,-9.62 -10.91,-9.62 -2.91,0 -6.29,0.70 z"/>
    <path d="m 342.08,240.21 -1.91,-12.41 h -21.83 l -7.16,12.41 h -11.29 l 37.08,-61.87 h 3.87 l 12.54,61.87 z m -6.58,-43.33 -12.54,22.79 h 15.99 z"/>
    <path d="m 404.75,190.92 q -4.74,-3.37 -10.54,-3.37 -9.37,0 -15.74,8.95 -6.33,8.91 -6.33,19.79 0,7.04 3.45,11.24 3.45,4.20 9.62,4.20 9.58,0 15.04,-5.20 l -0.20,9.54 q -5.91,5.16 -17.04,5.16 -9.91,0 -15.99,-6.5 -6.08,-6.54 -6.08,-16.95 0,-16.83 9.33,-28.24 9.37,-11.41 24.45,-11.41 7.37,0 13.08,2.41 z"/>
    <path d="m 459,188.67 h -28.12 l -2.54,14.04 h 20.16 l -1.70,9.08 h -20.16 l -3.41,18.91 h 27.66 l -1.79,9.5 h -38.83 l 11.25,-61.04 h 39.29 z"/>
  </g>
  <path style="fill:#b82828" d="M 8.15,20.16 499.46,19.97 457.07,240.2 546.79,0 9.39,13.33 z"/>
</svg>
