<?xml version="1.0" encoding="utf-8"?>
<svg xmlns="http://www.w3.org/2000/svg" viewBox="0 0 512 256" width="256" height="128">
  <rect x="0" y="0" width="512" height="256" fill="#0f161c"/>
  <g fill="#e4e9ed">
    <path d="M 261.64 68 L 225.28 145.122 L 225.28 188 L 211.443 188 L 211.443 144.755 L 175.083 68 L 191.61 68 L 211.596 111.885 L 218.974 129.513 L 225.739 113.537 L 245.96 68 Z"/>
    <path d="M 431 188 L 370.786 188 L 370.786 68 L 431 68 L 431 81.773 L 385.21 81.773 L 385.21 118.956 L 429.216 118.956 L 429.216 132.728 L 385.21 132.728 L 385.21 174.044 L 431 174.044 Z"/>
    <path d="M 355.73 188 L 335.107 188 L 301.236 113.173 L 291.459 89.119 L 291.459 188 L 276.699 188 L 276.699 68 L 297.054 68 L 329.324 138.878 L 340.969 166.331 L 340.969 68 L 355.73 68 Z"/>
    <path d="M 160.03 81.96 L 127.971 81.96 L 127.971 188 L 113.058 188 L 113.058 81.96 L 81 81.96 L 81 68.004 L 160.032 68.004 Z"/>
  </g>
</svg>
