<?xml version="1.0" encoding="utf-8"?>
<svg xmlns="http://www.w3.org/2000/svg" viewBox="0 0 82 64" style="fill: currentColor;">
  <style>
      * {
        color: #28232D;
      }

      @media (prefers-color-scheme: dark) {
          * {
            color: #FBFBFB;
          }
      }
  </style>
  <path d="M 41.999576,7.443228 24.962013,7.443149 V 64 H 17.037564 V 7.443149 H 0 V 1.71e-4 L 42,0 Z" />
  <path d="m 82,44.564084 c 0,2.806249 -0.51282,5.449343 -1.53847,7.929283 -1.02563,2.44731 -2.56409,4.600941 -4.61538,6.460896 -2.05128,1.827324 -4.63004,3.279395 -7.73626,4.356212 C 66.68438,63.697096 65.29115,63.949419 63.86963,64 L 46,63.9957 v -7.416996 h 19.29671 c 1.99071,-0.04782 3.7216,-1.344372 5.01098,-2.421188 1.28937,-1.076816 2.2271,-2.382047 2.81319,-3.915695 0.58607,-1.533647 0.87911,-3.263079 0.87911,-5.188296 0,-1.762062 -0.35165,-3.295709 -1.05494,-4.600941 -0.70329,-1.305231 -1.69963,-2.398363 -2.98901,-3.279394 -1.26007,-0.881032 -2.78388,-1.533648 -4.57143,-1.957848 -1.75824,-0.456831 -3.6923,-0.685247 -5.80219,-0.685247 H 52 v -7.332058 h 7.67081 c 1.72894,0 3.29622,0.08802 4.70281,-0.401439 1.4359,-0.522093 2.65202,-1.256285 3.64835,-2.202578 1.02564,-0.946294 1.80219,-2.104687 2.32967,-3.47518 0.55678,-1.403124 0.83517,-2.985717 0.83517,-4.74778 0,-3.426233 -0.93773,-5.922488 -2.81319,-7.4887664 -1.87545,-1.566278 -4.63004,-1.530359 -8.26374,-1.530359 H 48 V 0.02616362 h 12.68132 c 5.24717,-0.132832 9.57647,0.132506 13.84615,3.37412798 1.55311,1.370493 2.72528,3.034663 3.51649,4.99251 0.7912,1.9578484 1.1868,4.1604264 1.1868,6.6077354 0,3.65465 -0.84982,6.721944 -2.54945,9.201884 -1.67032,2.47994 -3.9707,4.454103 -6.90109,5.922489 1.49451,0.261046 2.9597,0.783139 4.3956,1.566278 1.4652,0.783138 2.76922,1.794694 3.91208,3.034663 1.17217,1.207339 2.1099,2.643095 2.8132,4.307265 C 81.6337,40.697286 82,42.540925 82,44.564034 Z" />
</svg>
