<?xml version="1.0" encoding="utf-8"?>
<svg xmlns="http://www.w3.org/2000/svg" viewBox="0 0 236 64" width="94px" height="25px">
  <g style="fill: #0F161F;">
    <path d="m 236,44.564 c 0,2.806 -0.512,5.449 -1.538,7.929 -1.025,2.447 -2.564,4.600 -4.615,6.460 -2.051,1.827 -4.630,3.279 -7.736,4.356 -1.425,0.386 -2.818,0.638 -4.240,0.689 L 200,63.995 v -7.416 h 19.296 c 1.990,-0.047 3.721,-1.344 5.010,-2.421 1.289,-1.076 2.227,-2.382 2.813,-3.915 0.586,-1.533 0.879,-3.263 0.879,-5.188 0,-1.762 -0.351,-3.295 -1.054,-4.600 -0.703,-1.305 -1.699,-2.398 -2.989,-3.279 -1.260,-0.881 -2.783,-1.533 -4.571,-1.957 -1.758,-0.456 -3.692,-0.685 -5.802,-0.685 H 206 v -7.332 h 7.670 c 1.728,0 3.296,0.088 4.702,-0.401 1.435,-0.522 2.652,-1.256 3.648,-2.202 1.025,-0.946 1.802,-2.104 2.329,-3.475 0.556,-1.403 0.835,-2.985 0.835,-4.747 0,-3.426 -0.937,-5.922 -2.813,-7.488 -1.875,-1.566 -4.630,-1.530 -8.263,-1.530 H 202 V 0.026 h 12.681 c 5.247,-0.132 9.576,0.132 13.846,3.374 1.553,1.370 2.725,3.034 3.516,4.992 0.791,1.957 1.186,4.160 1.186,6.607 0,3.654 -0.849,6.721 -2.549,9.201 -1.670,2.479 -3.970,4.454 -6.901,5.922 1.494,0.261 2.959,0.783 4.395,1.566 1.465,0.783 2.769,1.794 3.912,3.034 1.172,1.207 2.109,2.643 2.813,4.307 0.732,1.664 1.098,3.507 1.098,5.530 z" />
    <path d="M 186,64 H 154 V 0 h 32 V 7.345 H 161.666 V 27.176 h 23.386 v 7.345 H 161.666 V 56.557 H 186 Z" />
    <path d="m 146,64 h -10.960 l -18,-39.908 -5.196,-12.829 V 43.531 64 H 104 V 0 h 10.818 l 17.149,37.802 6.188,14.641 V 18.166 0 H 146 Z" />
    <path d="M 95.999,0 76.676,41.132 V 64 H 69.323 V 40.936 L 50,0 h 8.783 l 10.621,23.406 3.921,9.401 3.595,-8.520 L 87.666,0 Z" />
    <path d="M 41.999,7.443 24.962,7.443 V 64 H 17.037 V 7.443 H 0 V 1.71e-4 L 42,0 Z" />
  </g>
</svg>
